<?xml version="1.0" standalone="no"?>
<!DOCTYPE svg PUBLIC "-//W3C//DTD SVG 20010904//EN"
 "http://www.w3.org/TR/2001/REC-SVG-20010904/DTD/svg10.dtd">
<svg version="1.0" xmlns="http://www.w3.org/2000/svg"
 width="1000.000000pt" height="1000.000000pt" viewBox="0 0 1000.000000 1000.000000"
 preserveAspectRatio="xMidYMid meet">
<metadata>
Created by potrace 1.11, written by Peter Selinger 2001-2013
</metadata>
<g transform="translate(0.000000,1000.000000) scale(0.100000,-0.100000)"
fill="#000000" stroke="none">
<path d="M4870 8989 c-2648 -373 -4818 -678 -4821 -679 -8 0 -19 -3418 -19
-5864 l0 -1999 113 -62 c63 -33 118 -60 123 -58 5 1 2186 309 4848 682 2661
374 4840 682 4842 684 3 2 8 1771 12 3931 l7 3927 -111 60 c-78 41 -122 59
-145 58 -19 -1 -2201 -307 -4849 -680z m-2114 -1584 c549 -235 1016 -436 1036
-446 93 -47 175 -155 202 -266 10 -37 21 -84 26 -103 13 -48 49 -81 225 -201
276 -188 323 -231 376 -344 48 -101 54 -171 40 -421 -8 -120 -12 -304 -9 -409
7 -309 22 -331 320 -484 187 -95 198 -100 214 -83 10 9 141 165 293 347 151
181 298 353 326 380 210 210 502 238 692 68 38 -35 479 -559 1963 -2331 305
-365 572 -689 593 -720 48 -72 72 -147 63 -195 -9 -47 -56 -93 -109 -108 -102
-29 69 -45 -3827 362 -580 60 -1089 117 -1130 125 -105 22 -165 50 -205 96
-79 93 -67 238 34 388 36 55 223 283 562 686 l177 210 608 -203 c577 -192 612
-203 684 -203 57 0 87 6 125 24 72 33 154 132 129 156 -8 7 -760 351 -1389
634 -205 92 -287 150 -362 254 -52 73 -80 136 -111 247 -14 50 -17 110 -17
355 0 162 2 360 5 440 5 133 3 148 -15 179 -14 25 -77 73 -209 163 -104 70
-197 128 -207 128 -9 0 -40 -16 -70 -36 -129 -89 -253 -124 -368 -104 -47 8
-336 127 -1035 427 -534 229 -998 429 -1030 445 -166 84 -256 246 -243 443 11
189 124 378 280 469 87 51 151 67 263 63 l101 -4 999 -428z"/>
</g>
</svg>
