<?xml version="1.0" standalone="no"?>
<!DOCTYPE svg PUBLIC "-//W3C//DTD SVG 20010904//EN"
 "http://www.w3.org/TR/2001/REC-SVG-20010904/DTD/svg10.dtd">
<svg version="1.0" xmlns="http://www.w3.org/2000/svg"
 width="1000.000000pt" height="1000.000000pt" viewBox="0 0 1000.000000 1000.000000"
 preserveAspectRatio="xMidYMid meet">
<metadata>
Created by potrace 1.11, written by Peter Selinger 2001-2013
</metadata>
<g transform="translate(0.000000,1000.000000) scale(0.100000,-0.100000)"
fill="#000000" stroke="none">
<path d="M4870 8989 c-2648 -373 -4818 -678 -4821 -679 -8 0 -19 -3418 -19
-5864 l0 -1999 113 -62 c63 -33 118 -60 123 -58 5 1 2186 309 4848 682 2661
374 4840 682 4842 684 3 2 8 1771 12 3931 l7 3927 -111 60 c-78 41 -122 59
-145 58 -19 -1 -2201 -307 -4849 -680z m2390 -804 c114 -40 202 -141 236 -270
21 -76 19 -659 -1 -740 -46 -181 -194 -346 -350 -390 -77 -22 -3971 -567
-4050 -567 -186 0 -336 139 -365 338 -22 156 -5 651 26 744 47 140 189 287
319 330 38 12 774 120 2020 294 1078 151 1971 277 1985 280 38 7 136 -3 180
-19z m-1246 -2469 c103 -50 171 -137 201 -254 14 -53 16 -114 13 -395 -4 -328
-4 -333 -29 -399 -63 -162 -191 -289 -339 -336 -19 -7 -935 -138 -2034 -292
-1571 -221 -2010 -280 -2052 -274 -165 20 -297 158 -325 338 -7 42 -9 184 -7
365 4 291 4 297 31 371 53 147 152 260 284 322 56 27 111 36 555 99 271 39
1157 164 1968 279 1649 233 1623 230 1734 176z m2538 -1908 c105 -49 182 -143
214 -262 20 -76 19 -647 -1 -734 -40 -170 -171 -325 -322 -382 -83 -31 -4010
-583 -4104 -577 -171 11 -307 142 -339 329 -8 44 -10 166 -8 365 4 251 7 307
22 353 57 176 181 312 331 365 29 10 868 133 2020 296 1513 214 1989 277 2050
275 61 -2 93 -8 137 -28z"/>
<path d="M6704 7796 c-110 -27 -211 -116 -267 -234 -30 -62 -32 -75 -32 -172
0 -121 16 -162 88 -238 201 -208 577 8 577 332 0 215 -172 361 -366 312z"/>
<path d="M5370 5328 c-71 -27 -176 -130 -213 -209 -87 -186 -33 -389 125 -468
143 -72 313 -19 425 132 140 191 95 456 -92 543 -66 31 -167 32 -245 2z"/>
<path d="M7943 3421 c-224 -77 -343 -356 -238 -560 93 -182 329 -208 493 -56
99 91 148 212 140 341 -14 214 -199 343 -395 275z"/>
</g>
</svg>
